{
  "accessors": [
    {
      "bufferView": 3,
      "componentType": 5126,
      "count": 1112,
      "max": [
        0.5602929592132568,
        1.3872464895248413,
        0.8585704565048218
      ],
      "min": [
        -0.5601844787597656,
        -0.8801209330558777,
        -0.8585705757141113
      ],
      "type": "VEC3"
    },
    {
      "bufferView": 3,
      "byteOffset": 13344,
      "componentType": 5126,
      "count": 1112,
      "max": [
        1.0,
        0.9797060489654541,
        1.0
      ],
      "min": [
        -1.0,
        -1.0,
        -1.0
      ],
      "type": "VEC3"
    },
    {
      "bufferView": 2,
      "componentType": 5126,
      "count": 1112,
      "max": [
        0.9360430240631104,
        0.6028351187705994
      ],
      "min": [
        0.06844791769981384,
        0.19276289641857147
      ],
      "type": "VEC2"
    },
    {
      "bufferView": 1,
      "componentType": 5125,
      "count": 5298,
      "type": "SCALAR"
    },
    {
      "bufferView": 5,
      "componentType": 5126,
      "count": 11,
      "max": [
        1.0,
        2.2079875847535964e-27,
        2.384185791015625e-07,
        0.0,
        3.8843308045955274e-14,
        1.0,
        1.0000001192092896,
        0.0,
        2.3841853646899835e-07,
        1.0000003576278687,
        1.0,
        0.0,
        0.056027621030807495,
        0.0,
        0.12848271429538727,
        1.0
      ],
      "min": [
        -1.0,
        -1.800011420298453e-14,
        -8.742278367890322e-08,
        0.0,
        -8.742277657347586e-08,
        -1.0,
        -1.6292067073209182e-07,
        0.0,
        -2.384185791015625e-07,
        -1.0,
        -1.0,
        0.0,
        -4.629812977441361e-09,
        -0.5299805402755737,
        -0.20969752967357635,
        1.0
      ],
      "type": "MAT4"
    },
    {
      "bufferView": 0,
      "componentType": 5123,
      "count": 1112,
      "type": "VEC4"
    },
    {
      "bufferView": 4,
      "componentType": 5126,
      "count": 1112,
      "max": [
        1.0,
        0.5,
        0.0,
        0.0
      ],
      "min": [
        0.5,
        0.0,
        0.0,
        0.0
      ],
      "type": "VEC4"
    }
  ],
  "asset": {
    "extras": {
      "author": "DAR 88 (https://sketchfab.com/DAR88)",
      "license": "SKETCHFAB Standard (https://sketchfab.com/licenses)",
      "source": "https://sketchfab.com/3d-models/kris-light-world-form-deltarune-97f3a5b87f3b4ee0a099dd1c13062eae",
      "title": "Kris light world form - deltarune"
    },
    "generator": "Sketchfab-16.73.0",
    "version": "2.0"
  },
  "bufferViews": [
    {
      "buffer": 0,
      "byteLength": 8896,
      "byteStride": 8,
      "name": "shortBufferViews",
      "target": 34962
    },
    {
      "buffer": 0,
      "byteLength": 21192,
      "byteOffset": 8896,
      "name": "floatBufferViews",
      "target": 34963
    },
    {
      "buffer": 0,
      "byteLength": 8896,
      "byteOffset": 30088,
      "byteStride": 8,
      "name": "floatBufferViews",
      "target": 34962
    },
    {
      "buffer": 0,
      "byteLength": 26688,
      "byteOffset": 38984,
      "byteStride": 12,
      "name": "floatBufferViews",
      "target": 34962
    },
    {
      "buffer": 0,
      "byteLength": 17792,
      "byteOffset": 65672,
      "byteStride": 16,
      "name": "floatBufferViews",
      "target": 34962
    },
    {
      "buffer": 0,
      "byteLength": 704,
      "byteOffset": 83464,
      "name": "floatBufferViews"
    }
  ],
  "buffers": [
    {
      "byteLength": 84168,
      "uri": "scene.bin"
    }
  ],
  "extensionsUsed": [
    "KHR_materials_unlit"
  ],
  "images": [
    {
      "uri": "textures/kris_lightworld_baseColor.png"
    }
  ],
  "materials": [
    {
      "extensions": {
        "KHR_materials_unlit": {}
      },
      "name": "kris_lightworld",
      "pbrMetallicRoughness": {
        "baseColorTexture": {
          "index": 0
        },
        "metallicFactor": 0.0
      }
    }
  ],
  "meshes": [
    {
      "name": "cuerpo_kris lightworld_0",
      "primitives": [
        {
          "attributes": {
            "JOINTS_0": 5,
            "NORMAL": 1,
            "POSITION": 0,
            "TEXCOORD_0": 2,
            "WEIGHTS_0": 6
          },
          "indices": 3,
          "material": 0,
          "mode": 4
        }
      ]
    }
  ],
  "nodes": [
    {
      "children": [
        1
      ],
      "matrix": [
        2.220446049250313e-16,
        -3.828568672208042e-16,
        1.0,
        0.0,
        1.0,
        1.6081226229577296e-16,
        -2.2204460492503128e-16,
        0.0,
        -1.6081226229577292e-16,
        1.0,
        3.828568672208042e-16,
        0.0,
        0.0,
        0.0,
        0.0,
        1.0
      ],
      "name": "Sketchfab_model"
    },
    {
      "children": [
        2
      ],
      "matrix": [
        0.009999999776482582,
        0.0,
        0.0,
        0.0,
        0.0,
        0.0,
        0.009999999776482582,
        0.0,
        0.0,
        -0.009999999776482582,
        0.0,
        0.0,
        0.0,
        0.0,
        0.0,
        1.0
      ],
      "name": "567f69f3c6f84f84b76966f741ea855c.fbx"
    },
    {
      "children": [
        3
      ],
      "name": "RootNode"
    },
    {
      "children": [
        4
      ],
      "matrix": [
        100.0,
        0.0,
        0.0,
        0.0,
        0.0,
        -1.629206793918314e-05,
        -99.99999999999868,
        0.0,
        0.0,
        99.99999999999868,
        -1.629206793918314e-05,
        0.0,
        0.0,
        0.0,
        0.0,
        1.0
      ],
      "name": "Esqueleto.001"
    },
    {
      "children": [
        5,
        17,
        16
      ],
      "name": "Object_4"
    },
    {
      "children": [
        6
      ],
      "name": "_rootJoint"
    },
    {
      "children": [
        7,
        9,
        10,
        12,
        14
      ],
      "name": "cuerpo_00",
      "rotation": [
        0.7071068286895752,
        8.429369557916289e-08,
        8.429368847373553e-08,
        0.7071067094802856
      ],
      "translation": [
        0.0,
        0.01941884495317936,
        0.014988106675446033
      ]
    },
    {
      "children": [
        8
      ],
      "name": "arm1.r_01",
      "rotation": [
        0.9501351714134216,
        3.7174046951804485e-08,
        1.1326494586683111e-07,
        -0.31183838844299316
      ],
      "translation": [
        4.356987659548395e-08,
        0.19470936059951782,
        -0.1827453225851059
      ]
    },
    {
      "name": "arm2.r_02",
      "rotation": [
        -0.3102089464664459,
        -6.887461798652151e-17,
        2.353005927234977e-21,
        0.9506683945655823
      ],
      "scale": [
        1.0,
        0.9999998807907104,
        0.9999998807907104
      ],
      "translation": [
        -4.764560328305439e-22,
        0.29248714447021484,
        1.210719347000122e-08
      ]
    },
    {
      "name": "head_03",
      "rotation": [
        2.3161057151484775e-21,
        -1.1920928955078125e-07,
        -1.5777545362047505e-30,
        1.0
      ],
      "translation": [
        -5.211416530096386e-18,
        0.34640607237815857,
        -1.1365841601218563e-09
      ]
    },
    {
      "children": [
        11
      ],
      "name": "muslo.r_04",
      "rotation": [
        1.0,
        1.4699984054989367e-14,
        1.9470718370939721e-07,
        -7.549790126404332e-08
      ],
      "translation": [
        -0.05602756142616272,
        -0.2604474723339081,
        -0.10906393080949783
      ]
    },
    {
      "name": "pantorrilla.r_05",
      "rotation": [
        5.237275502167904e-08,
        4.3711395392165286e-08,
        1.0197351724963374e-14,
        1.0
      ],
      "translation": [
        -7.738912843890944e-10,
        0.2845211923122406,
        3.984387930699995e-09
      ]
    },
    {
      "children": [
        13
      ],
      "name": "arm1.l_06",
      "rotation": [
        -1.7141590546998486e-07,
        0.23067979514598846,
        0.9730297327041626,
        -3.6952325643824224e-08
      ],
      "scale": [
        1.0,
        0.9999998807907104,
        0.9999998211860657
      ],
      "translation": [
        -5.282950255036667e-08,
        0.19470936059951782,
        0.22158296406269073
      ]
    },
    {
      "name": "arm2.l_07",
      "rotation": [
        -0.25636249780654907,
        -4.225058702900242e-08,
        -1.1205961492066763e-08,
        0.9665806889533997
      ],
      "scale": [
        1.0,
        0.9999998807907104,
        0.9999998807907104
      ],
      "translation": [
        -3.552713678800501e-15,
        0.2924870252609253,
        -3.9115551686563776e-08
      ]
    },
    {
      "children": [
        15
      ],
      "name": "muslo.l_08",
      "rotation": [
        1.0,
        1.4699984054989367e-14,
        1.9470718370939721e-07,
        -7.549790126404332e-08
      ],
      "translation": [
        -0.056027621030807495,
        -0.26044750213623047,
        0.14790154993534088
      ]
    },
    {
      "name": "pantorrilla.l_09",
      "rotation": [
        3.308720683163683e-22,
        4.3711395392165286e-08,
        3.8116482626443515e-21,
        1.0
      ],
      "translation": [
        7.739106022697229e-10,
        0.2845211327075958,
        3.984387930699995e-09
      ]
    },
    {
      "matrix": [
        100.00000000000568,
        4.442531815333092e-19,
        2.842170943040401e-12,
        0.0,
        2.842170943040473e-12,
        -1.6292067822038674e-05,
        -100.00000000000567,
        0.0,
        1.8795236125081727e-20,
        99.99999999999999,
        -1.6292067822037746e-05,
        0.0,
        -1.0664033212037793e-06,
        -9.466239458078007e-06,
        -1.5737525183023848e-06,
        1.0
      ],
      "name": "Object_16"
    },
    {
      "mesh": 0,
      "name": "Object_17",
      "skin": 0
    }
  ],
  "samplers": [
    {
      "magFilter": 9729,
      "minFilter": 9987,
      "wrapS": 10497,
      "wrapT": 10497
    }
  ],
  "scene": 0,
  "scenes": [
    {
      "name": "Sketchfab_Scene",
      "nodes": [
        0
      ]
    }
  ],
  "skins": [
    {
      "inverseBindMatrices": 4,
      "joints": [
        5,
        6,
        7,
        8,
        9,
        10,
        11,
        12,
        13,
        14,
        15
      ],
      "skeleton": 5
    }
  ],
  "textures": [
    {
      "sampler": 0,
      "source": 0
    }
  ]
}
