{
  "accessors": [
    {
      "bufferView": 3,
      "componentType": 5126,
      "count": 1898,
      "max": [
        1.1488502025604248,
        3.8885958194732666,
        1.744128942489624
      ],
      "min": [
        -1.1488502025604248,
        -0.008924293331801891,
        -1.4343401193618774
      ],
      "type": "VEC3"
    },
    {
      "bufferView": 3,
      "byteOffset": 22776,
      "componentType": 5126,
      "count": 1898,
      "max": [
        1.0,
        1.0,
        1.0
      ],
      "min": [
        -1.0,
        -1.0,
        -1.0
      ],
      "type": "VEC3"
    },
    {
      "bufferView": 2,
      "componentType": 5126,
      "count": 1898,
      "max": [
        0.9916157722473145,
        0.9897544384002686
      ],
      "min": [
        0.00956727471202612,
        0.0051690638065338135
      ],
      "type": "VEC2"
    },
    {
      "bufferView": 1,
      "componentType": 5125,
      "count": 10044,
      "type": "SCALAR"
    },
    {
      "bufferView": 3,
      "byteOffset": 45552,
      "componentType": 5126,
      "count": 106,
      "max": [
        1.0963261127471924,
        2.838970184326172,
        1.5557224750518799
      ],
      "min": [
        -1.0963261127471924,
        0.9748876690864563,
        -0.24605831503868103
      ],
      "type": "VEC3"
    },
    {
      "bufferView": 3,
      "byteOffset": 46824,
      "componentType": 5126,
      "count": 106,
      "max": [
        0.9983890652656555,
        0.9994077682495117,
        0.9772418737411499
      ],
      "min": [
        -0.9983891248703003,
        -0.9992555379867554,
        -0.970084011554718
      ],
      "type": "VEC3"
    },
    {
      "bufferView": 2,
      "byteOffset": 15184,
      "componentType": 5126,
      "count": 106,
      "max": [
        0.9886856079101563,
        0.9073509573936462
      ],
      "min": [
        0.7647686004638672,
        0.564077615737915
      ],
      "type": "VEC2"
    },
    {
      "bufferView": 1,
      "byteOffset": 40176,
      "componentType": 5125,
      "count": 576,
      "type": "SCALAR"
    },
    {
      "bufferView": 5,
      "componentType": 5126,
      "count": 32,
      "max": [
        100.0,
        0.13108590245246887,
        0.006185532081872225,
        0.0,
        0.007322484161704779,
        100.0,
        0.9999396204948425,
        0.0,
        0.13102728128433228,
        1.0,
        100.0,
        0.0,
        0.649446964263916,
        1.3589084148406982,
        1.4652931690216064,
        1.0
      ],
      "min": [
        0.9913516640663147,
        -0.13108587265014648,
        -0.006185516715049744,
        0.0,
        -0.0073224883526563644,
        -1.0,
        -1.0,
        0.0,
        -0.13102726638317108,
        -0.9947385191917419,
        -1.0,
        0.0,
        -0.649446964263916,
        -2.592467784881592,
        -3.2674198150634766,
        1.0
      ],
      "type": "MAT4"
    },
    {
      "bufferView": 0,
      "componentType": 5123,
      "count": 1898,
      "type": "VEC4"
    },
    {
      "bufferView": 4,
      "componentType": 5126,
      "count": 1898,
      "max": [
        1.0,
        0.49927958846092224,
        0.23039473593235016,
        0.037029869854450226
      ],
      "min": [
        0.5007203817367554,
        0.0,
        0.0,
        0.0
      ],
      "type": "VEC4"
    },
    {
      "bufferView": 0,
      "byteOffset": 15184,
      "componentType": 5123,
      "count": 106,
      "type": "VEC4"
    },
    {
      "bufferView": 4,
      "byteOffset": 30368,
      "componentType": 5126,
      "count": 106,
      "max": [
        0.9574823379516602,
        0.4013890326023102,
        0.30685171484947205,
        0.0
      ],
      "min": [
        0.36001846194267273,
        0.028420448303222656,
        0.014097229577600956,
        0.0
      ],
      "type": "VEC4"
    }
  ],
  "asset": {
    "extras": {
      "author": "Kris (https://sketchfab.com/cjcarljhosson)",
      "license": "CC-BY-4.0 (http://creativecommons.org/licenses/by/4.0/)",
      "source": "https://sketchfab.com/3d-models/stylized-gubby-bc7c61ef83f047bd86082033496a7b27",
      "title": "Stylized Gubby"
    },
    "generator": "Sketchfab-16.73.0",
    "version": "2.0"
  },
  "bufferViews": [
    {
      "buffer": 0,
      "byteLength": 16032,
      "byteStride": 8,
      "name": "shortBufferViews",
      "target": 34962
    },
    {
      "buffer": 0,
      "byteLength": 42480,
      "byteOffset": 16032,
      "name": "floatBufferViews",
      "target": 34963
    },
    {
      "buffer": 0,
      "byteLength": 16032,
      "byteOffset": 58512,
      "byteStride": 8,
      "name": "floatBufferViews",
      "target": 34962
    },
    {
      "buffer": 0,
      "byteLength": 48096,
      "byteOffset": 74544,
      "byteStride": 12,
      "name": "floatBufferViews",
      "target": 34962
    },
    {
      "buffer": 0,
      "byteLength": 32064,
      "byteOffset": 122640,
      "byteStride": 16,
      "name": "floatBufferViews",
      "target": 34962
    },
    {
      "buffer": 0,
      "byteLength": 2048,
      "byteOffset": 154704,
      "name": "floatBufferViews"
    }
  ],
  "buffers": [
    {
      "byteLength": 156752,
      "uri": "scene.bin"
    }
  ],
  "images": [
    {
      "uri": "textures/Gubby_baseColor.png"
    }
  ],
  "materials": [
    {
      "doubleSided": true,
      "name": "Gubby",
      "pbrMetallicRoughness": {
        "baseColorTexture": {
          "index": 0
        },
        "metallicFactor": 0.0,
        "roughnessFactor": 0.8040408205773457
      }
    }
  ],
  "meshes": [
    {
      "name": "0",
      "primitives": [
        {
          "attributes": {
            "JOINTS_0": 9,
            "NORMAL": 1,
            "POSITION": 0,
            "TEXCOORD_0": 2,
            "WEIGHTS_0": 10
          },
          "indices": 3,
          "material": 0,
          "mode": 4
        }
      ]
    },
    {
      "name": "Neck Fluff_Gubby_0",
      "primitives": [
        {
          "attributes": {
            "JOINTS_0": 11,
            "NORMAL": 5,
            "POSITION": 4,
            "TEXCOORD_0": 6,
            "WEIGHTS_0": 12
          },
          "indices": 7,
          "material": 0,
          "mode": 4
        }
      ]
    }
  ],
  "nodes": [
    {
      "children": [
        1
      ],
      "matrix": [
        1.0,
        0.0,
        0.0,
        0.0,
        0.0,
        2.220446049250313e-16,
        -1.0,
        0.0,
        0.0,
        1.0,
        2.220446049250313e-16,
        0.0,
        0.0,
        0.0,
        0.0,
        1.0
      ],
      "name": "Sketchfab_model"
    },
    {
      "children": [
        2
      ],
      "matrix": [
        0.009999999776482582,
        0.0,
        0.0,
        0.0,
        0.0,
        0.0,
        0.009999999776482582,
        0.0,
        0.0,
        -0.009999999776482582,
        0.0,
        0.0,
        0.0,
        0.0,
        0.0,
        1.0
      ],
      "name": "96432b7c08d141be90db152444fb433a.fbx"
    },
    {
      "children": [
        3
      ],
      "name": "RootNode"
    },
    {
      "children": [
        4
      ],
      "matrix": [
        100.0,
        0.0,
        0.0,
        0.0,
        0.0,
        -1.629206793918314e-05,
        -99.99999999999868,
        0.0,
        0.0,
        99.99999999999868,
        -1.629206793918314e-05,
        0.0,
        0.0,
        0.0,
        0.0,
        1.0
      ],
      "name": "Armature"
    },
    {
      "children": [
        5,
        7,
        9,
        6,
        8
      ],
      "name": "Object_4"
    },
    {
      "children": [
        10
      ],
      "name": "_rootJoint"
    },
    {
      "matrix": [
        100.00000000000227,
        -5.684341886080802e-14,
        4.235157351381774e-22,
        0.0,
        4.235157386188233e-22,
        6.123233995736766e-15,
        -100.0,
        0.0,
        5.684341886080802e-14,
        100.00000000000227,
        6.123233995736905e-15,
        0.0,
        1.0128943734780517e-13,
        -4.768374935792963e-06,
        2.86102294921875e-06,
        1.0
      ],
      "name": "Object_6"
    },
    {
      "mesh": 0,
      "name": "Object_7",
      "skin": 0
    },
    {
      "matrix": [
        100.00000000000227,
        -5.684341886080802e-14,
        4.235157351381774e-22,
        0.0,
        4.235157386188233e-22,
        6.123233995736766e-15,
        -100.0,
        0.0,
        5.684341886080802e-14,
        100.00000000000227,
        6.123233995736905e-15,
        0.0,
        1.0128943734780517e-13,
        -4.768374935792963e-06,
        2.86102294921875e-06,
        1.0
      ],
      "name": "Object_8"
    },
    {
      "mesh": 1,
      "name": "Object_9",
      "skin": 0
    },
    {
      "children": [
        11,
        30,
        33,
        37
      ],
      "name": "Hips_01",
      "rotation": [
        1.0,
        3.6240207239486306e-15,
        7.549790126404332e-08,
        -4.371138828673793e-08
      ],
      "translation": [
        1.309821309387508e-16,
        1.3589084148406982,
        1.4652931690216064
      ]
    },
    {
      "children": [
        12
      ],
      "name": "Spine_02",
      "rotation": [
        -1.9852334701272664e-23,
        -1.1040223542260222e-23,
        3.2390248735428826e-16,
        1.0
      ],
      "translation": [
        1.011289788144091e-15,
        0.5146982669830322,
        0.0
      ]
    },
    {
      "children": [
        13,
        21,
        26
      ],
      "name": "Chest_03",
      "rotation": [
        -0.0,
        -1.1040223542260222e-23,
        -3.1554436208840472e-30,
        1.0
      ],
      "translation": [
        4.644062480020227e-16,
        0.8796347975730896,
        2.220446049250313e-16
      ]
    },
    {
      "children": [
        14
      ],
      "name": "Neck_04",
      "rotation": [
        -0.7071068286895752,
        3.090862676913275e-08,
        -1.3767879636361613e-07,
        0.7071067094802856
      ],
      "translation": [
        3.6288071214585216e-08,
        0.8651211857795715,
        -0.2403249740600586
      ]
    },
    {
      "children": [
        15,
        18
      ],
      "name": "Head_05",
      "rotation": [
        -1.6675961149069038e-21,
        -2.6469779601696886e-23,
        7.105427357601002e-15,
        1.0
      ],
      "translation": [
        4.183417799457842e-15,
        0.266086220741272,
        0.0
      ]
    },
    {
      "children": [
        16
      ],
      "name": "Ear.L_06",
      "rotation": [
        -0.6952803134918213,
        -0.03290450572967529,
        -0.03628292307257652,
        0.7170677185058594
      ],
      "scale": [
        1.0,
        0.9999998807907104,
        1.0
      ],
      "translation": [
        0.3627527356147766,
        1.2710334062576294,
        -0.0918491780757904
      ]
    },
    {
      "children": [
        17
      ],
      "name": "Ear.L.001_07",
      "rotation": [
        -0.011058887466788292,
        0.00019621200044639409,
        -0.01680980809032917,
        0.999797523021698
      ],
      "scale": [
        1.0,
        0.9999999403953552,
        1.0
      ],
      "translation": [
        -1.862645149230957e-08,
        0.5682330131530762,
        -2.2398307919502258e-07
      ]
    },
    {
      "name": "Ear.L.001_end_025",
      "rotation": [
        -7.52316384526264e-36,
        -5.421010862427522e-19,
        -1.3877787807814457e-17,
        1.0
      ],
      "translation": [
        5.551115123125783e-17,
        0.8827379941940308,
        0.0
      ]
    },
    {
      "children": [
        19
      ],
      "name": "Ear.R_08",
      "rotation": [
        -0.6952803134918213,
        0.03290434554219246,
        0.03628276661038399,
        0.7170678377151489
      ],
      "scale": [
        1.0,
        0.9999998807907104,
        0.9999999403953552
      ],
      "translation": [
        -0.36275267601013184,
        1.2710334062576294,
        -0.09184935688972473
      ]
    },
    {
      "children": [
        20
      ],
      "name": "Ear.R.001_09",
      "rotation": [
        -0.011058882810175419,
        -0.0001962089299922809,
        0.016809780150651932,
        0.999797523021698
      ],
      "translation": [
        -2.60770320892334e-08,
        0.5682331323623657,
        1.1525116860866547e-08
      ]
    },
    {
      "name": "Ear.R.001_end_026",
      "rotation": [
        8.673617379884035e-19,
        5.421010862427522e-19,
        -4.70197740328915e-37,
        1.0
      ],
      "translation": [
        -5.551115123125783e-17,
        0.8827379941940308,
        -4.440892098500626e-16
      ]
    },
    {
      "children": [
        22
      ],
      "name": "Shoulder.L_010",
      "rotation": [
        0.7071068286895752,
        1.0677018735805177e-07,
        1.067701660417697e-07,
        0.7071067094802856
      ],
      "translation": [
        0.5947715640068054,
        0.7861979007720947,
        0.6305864453315735
      ]
    },
    {
      "children": [
        23
      ],
      "name": "Arm.L_011",
      "rotation": [
        -2.039991947881594e-14,
        -3.178651297730539e-08,
        7.549789415861596e-08,
        1.0
      ],
      "translation": [
        -2.043236690951744e-09,
        0.12302133440971375,
        8.021497910348785e-10
      ]
    },
    {
      "children": [
        24
      ],
      "name": "Elbow.L_012",
      "rotation": [
        1.700683339409025e-21,
        2.6469779601696886e-23,
        7.105420581337424e-15,
        1.0
      ],
      "translation": [
        1.7076152047934556e-08,
        0.33821436762809753,
        2.2595330051444762e-08
      ]
    },
    {
      "children": [
        25
      ],
      "name": "Wrist_013",
      "rotation": [
        0.0,
        0.0,
        6.02689731588853e-28,
        1.0
      ],
      "translation": [
        1.7076146718864038e-08,
        0.2602989971637726,
        2.2595330051444762e-08
      ]
    },
    {
      "name": "Wrist_end_027",
      "rotation": [
        -0.0,
        -2.6469779601696886e-23,
        -4.733165431326071e-30,
        1.0
      ],
      "translation": [
        0.0,
        0.1781928688287735,
        1.1102230246251565e-16
      ]
    },
    {
      "children": [
        27
      ],
      "name": "Shoulder.R_014",
      "rotation": [
        0.7071068286895752,
        -1.0677018735805177e-07,
        -1.067701660417697e-07,
        0.7071067094802856
      ],
      "translation": [
        -0.5947718024253845,
        0.7861979007720947,
        0.6305862069129944
      ]
    },
    {
      "children": [
        28
      ],
      "name": "Arm.R_015",
      "rotation": [
        2.039991947881594e-14,
        3.178651297730539e-08,
        7.549789415861596e-08,
        1.0
      ],
      "translation": [
        -2.145230837413692e-08,
        0.12302139401435852,
        8.020851760548453e-10
      ]
    },
    {
      "children": [
        29
      ],
      "name": "Elbow.R_016",
      "rotation": [
        -1.6940658945086007e-21,
        -1.2037050672983204e-35,
        7.105420581337424e-15,
        1.0
      ],
      "translation": [
        -1.707614138979352e-08,
        0.33821436762809753,
        2.2595330051444762e-08
      ]
    },
    {
      "name": "Elbow.R_end_00",
      "rotation": [
        6.617444900424222e-24,
        0.0,
        4.733165431326071e-30,
        1.0
      ],
      "translation": [
        0.0,
        0.2602989971637726,
        0.0
      ]
    },
    {
      "children": [
        31
      ],
      "name": "Tail_017",
      "rotation": [
        0.9137183427810669,
        -3.0678421580887516e-08,
        2.0695142666227184e-07,
        -0.4063481092453003
      ],
      "scale": [
        1.0,
        0.9999999403953552,
        0.9999998211860657
      ],
      "translation": [
        9.955036261999339e-08,
        0.38008248805999756,
        -0.6592922210693359
      ]
    },
    {
      "children": [
        32
      ],
      "name": "Tail.001_018",
      "rotation": [
        0.14423008263111115,
        -3.145414595451257e-08,
        3.897168454614075e-08,
        0.9895442724227905
      ],
      "scale": [
        1.0,
        1.0000001192092896,
        1.0
      ],
      "translation": [
        8.71440506561294e-14,
        0.2644352912902832,
        -1.1102230246251565e-16
      ]
    },
    {
      "name": "Tail.001_end_028",
      "rotation": [
        -0.0,
        2.6469779601696886e-23,
        6.617444900424222e-24,
        1.0
      ],
      "translation": [
        0.0,
        0.3787368834018707,
        0.0
      ]
    },
    {
      "children": [
        34
      ],
      "name": "Leg.L_019",
      "rotation": [
        0.9630186557769775,
        1.5814592302376695e-08,
        2.1938426186807192e-07,
        0.2694351077079773
      ],
      "scale": [
        1.0,
        1.0,
        0.9999996423721313
      ],
      "translation": [
        0.6494472026824951,
        0.7626334428787231,
        0.3944999873638153
      ]
    },
    {
      "children": [
        35
      ],
      "name": "Knee.L_020",
      "rotation": [
        -0.6590326428413391,
        6.885007053369918e-08,
        -2.60172441812756e-07,
        0.7521143555641174
      ],
      "scale": [
        1.0,
        0.9999998807907104,
        0.9999998807907104
      ],
      "translation": [
        5.33197663799001e-08,
        0.6791765689849854,
        7.691832593081926e-08
      ]
    },
    {
      "children": [
        36
      ],
      "name": "Toe.L_021",
      "rotation": [
        -0.10300160199403763,
        3.62246447031464e-14,
        -4.91149805270652e-08,
        0.994681179523468
      ],
      "scale": [
        1.0,
        0.9999999403953552,
        0.9999999403953552
      ],
      "translation": [
        -1.8399262557977636e-08,
        0.5749945640563965,
        -3.3046205771825043e-08
      ]
    },
    {
      "name": "Toe.L_end_029",
      "rotation": [
        5.551115123125783e-17,
        2.6469779601696886e-23,
        -1.3234889800848443e-23,
        1.0
      ],
      "translation": [
        -1.1102230246251565e-16,
        0.3385913670063019,
        0.0
      ]
    },
    {
      "children": [
        38
      ],
      "name": "Leg.R_022",
      "rotation": [
        0.963018536567688,
        -6.555256248930164e-08,
        -7.143930957909106e-08,
        0.26943519711494446
      ],
      "scale": [
        1.0,
        0.9999999403953552,
        0.9999992847442627
      ],
      "translation": [
        -0.6494473218917847,
        0.7626334428787231,
        0.394499808549881
      ]
    },
    {
      "children": [
        39
      ],
      "name": "Knee.R_023",
      "rotation": [
        -0.6590326428413391,
        -6.265388208248623e-08,
        2.531009215545055e-07,
        0.7521143555641174
      ],
      "scale": [
        1.0,
        0.9999999403953552,
        0.9999999403953552
      ],
      "translation": [
        1.8191556705460243e-08,
        0.6791765689849854,
        7.691861014791357e-08
      ]
    },
    {
      "children": [
        40
      ],
      "name": "Toe.R_024",
      "rotation": [
        -0.10300160199403763,
        -7.650935210357611e-15,
        4.9114994737919915e-08,
        0.994681179523468
      ],
      "translation": [
        1.8399386902956394e-08,
        0.5749947428703308,
        5.6360732969551464e-08
      ]
    },
    {
      "name": "Toe.R_end_030",
      "rotation": [
        0.0,
        -1.0587911840678754e-22,
        0.0,
        1.0
      ],
      "translation": [
        0.0,
        0.3385913670063019,
        0.0
      ]
    }
  ],
  "samplers": [
    {
      "magFilter": 9729,
      "minFilter": 9987,
      "wrapS": 10497,
      "wrapT": 10497
    }
  ],
  "scene": 0,
  "scenes": [
    {
      "name": "Sketchfab_Scene",
      "nodes": [
        0
      ]
    }
  ],
  "skins": [
    {
      "inverseBindMatrices": 8,
      "joints": [
        5,
        10,
        11,
        12,
        13,
        14,
        15,
        16,
        17,
        18,
        19,
        20,
        21,
        22,
        23,
        24,
        25,
        26,
        27,
        28,
        29,
        30,
        31,
        32,
        33,
        34,
        35,
        36,
        37,
        38,
        39,
        40
      ],
      "skeleton": 5
    }
  ],
  "textures": [
    {
      "sampler": 0,
      "source": 0
    }
  ]
}
